<mxfile host="app.diagrams.net" agent="Mozilla/5.0 (Windows NT 10.0; Win64; x64) AppleWebKit/537.36 (KHTML, like Gecko) Chrome/130.0.0.0 Safari/537.36" version="24.8.6">
  <diagram name="Page-1" id="H9j1ZR-ccOhhmVk-Duxb">
    <mxGraphModel dx="1050" dy="557" grid="1" gridSize="10" guides="1" tooltips="1" connect="1" arrows="1" fold="1" page="1" pageScale="1" pageWidth="850" pageHeight="1100" math="0" shadow="0">
      <root>
        <mxCell id="0" />
        <mxCell id="1" parent="0" />
        <mxCell id="k-GzGez3ffepMvMOv6X--4" value="" style="edgeStyle=orthogonalEdgeStyle;rounded=0;orthogonalLoop=1;jettySize=auto;html=1;" edge="1" parent="1" source="8tq2AdiiSoOf8qJMaTPS-3" target="k-GzGez3ffepMvMOv6X--3">
          <mxGeometry relative="1" as="geometry" />
        </mxCell>
        <mxCell id="8tq2AdiiSoOf8qJMaTPS-3" value="START&lt;div&gt;&lt;br&gt;&lt;/div&gt;" style="strokeWidth=2;html=1;shape=mxgraph.flowchart.start_2;whiteSpace=wrap;" parent="1" vertex="1">
          <mxGeometry x="320" y="50" width="100" height="100" as="geometry" />
        </mxCell>
        <mxCell id="k-GzGez3ffepMvMOv6X--6" value="" style="edgeStyle=orthogonalEdgeStyle;rounded=0;orthogonalLoop=1;jettySize=auto;html=1;" edge="1" parent="1" source="k-GzGez3ffepMvMOv6X--3" target="k-GzGez3ffepMvMOv6X--5">
          <mxGeometry relative="1" as="geometry" />
        </mxCell>
        <mxCell id="k-GzGez3ffepMvMOv6X--3" value="&#xa;&lt;span style=&quot;color: rgb(0, 0, 0); font-family: Helvetica; font-size: 12px; font-style: normal; font-variant-ligatures: normal; font-variant-caps: normal; font-weight: 400; letter-spacing: normal; orphans: 2; text-align: center; text-indent: 0px; text-transform: none; widows: 2; word-spacing: 0px; -webkit-text-stroke-width: 0px; white-space: normal; background-color: rgb(251, 251, 251); text-decoration-thickness: initial; text-decoration-style: initial; text-decoration-color: initial; display: inline !important; float: none;&quot;&gt;num1,num2,total&lt;/span&gt;&#xa;&#xa;" style="whiteSpace=wrap;html=1;strokeWidth=2;" vertex="1" parent="1">
          <mxGeometry x="310" y="250" width="120" height="60" as="geometry" />
        </mxCell>
        <mxCell id="k-GzGez3ffepMvMOv6X--8" value="" style="edgeStyle=orthogonalEdgeStyle;rounded=0;orthogonalLoop=1;jettySize=auto;html=1;" edge="1" parent="1" source="k-GzGez3ffepMvMOv6X--5" target="k-GzGez3ffepMvMOv6X--7">
          <mxGeometry relative="1" as="geometry" />
        </mxCell>
        <mxCell id="k-GzGez3ffepMvMOv6X--5" value="num1,num2&lt;div&gt;&lt;br&gt;&lt;/div&gt;" style="shape=parallelogram;perimeter=parallelogramPerimeter;whiteSpace=wrap;html=1;fixedSize=1;strokeWidth=2;" vertex="1" parent="1">
          <mxGeometry x="310" y="390" width="120" height="60" as="geometry" />
        </mxCell>
        <mxCell id="k-GzGez3ffepMvMOv6X--10" value="" style="edgeStyle=orthogonalEdgeStyle;rounded=0;orthogonalLoop=1;jettySize=auto;html=1;" edge="1" parent="1" source="k-GzGez3ffepMvMOv6X--7" target="k-GzGez3ffepMvMOv6X--9">
          <mxGeometry relative="1" as="geometry" />
        </mxCell>
        <mxCell id="k-GzGez3ffepMvMOv6X--7" value="total=num1 + num2" style="whiteSpace=wrap;html=1;strokeWidth=2;" vertex="1" parent="1">
          <mxGeometry x="310" y="530" width="120" height="60" as="geometry" />
        </mxCell>
        <mxCell id="k-GzGez3ffepMvMOv6X--12" value="" style="edgeStyle=orthogonalEdgeStyle;rounded=0;orthogonalLoop=1;jettySize=auto;html=1;" edge="1" parent="1" source="k-GzGez3ffepMvMOv6X--9" target="k-GzGez3ffepMvMOv6X--11">
          <mxGeometry relative="1" as="geometry" />
        </mxCell>
        <mxCell id="k-GzGez3ffepMvMOv6X--9" value="total" style="shape=parallelogram;perimeter=parallelogramPerimeter;whiteSpace=wrap;html=1;fixedSize=1;strokeWidth=2;" vertex="1" parent="1">
          <mxGeometry x="310" y="670" width="120" height="60" as="geometry" />
        </mxCell>
        <mxCell id="k-GzGez3ffepMvMOv6X--11" value="END" style="ellipse;whiteSpace=wrap;html=1;strokeWidth=2;" vertex="1" parent="1">
          <mxGeometry x="330" y="800" width="80" height="80" as="geometry" />
        </mxCell>
      </root>
    </mxGraphModel>
  </diagram>
</mxfile>
